<svg xmlns="http://www.w3.org/2000/svg" viewBox="0 0 59 39.84"><defs><style>.cls-1{fill:#1a1a1d;}</style></defs><g id="Layer_2" data-name="Layer 2"><g id="Layer_1-2" data-name="Layer 1"><path class="cls-1" d="M50.3,26.06H38.93a.4.4,0,0,1-.4-.24c-1.12-2-2.26-3.94-3.39-5.91L32.32,15c-1-1.76-2-3.51-3-5.27l-2.58-4.5c-.08-.13-.08-.19.07-.28l4.89-2.87,3.44-2c.12-.08.18-.07.25.06L38,4.6q1.35,2.33,2.69,4.66l2.55,4.43L45.69,18c.86,1.49,1.72,3,2.57,4.46l2,3.43A.21.21,0,0,1,50.3,26.06Z"/><path class="cls-1" d="M35,26.06H26.12c-.22,0-.28.05-.28.28,0,.67,0,1.34,0,2,0,.16-.05.21-.21.21q-1,0-2.07,0c-.18,0-.23-.07-.23-.25,0-.63,0-1.26,0-1.9a1.37,1.37,0,0,0-.22-.76L20.49,21q-1.5-2.61-3-5.23c-.28-.47-.54-.95-.82-1.43-.09-.16-.08-.23.09-.33L23,10.53l2.24-1.27c.13-.07.19-.07.28.08l3,5.33q1.44,2.51,2.87,5c.95,1.64,1.89,3.29,2.84,4.94Z"/><path class="cls-1" d="M22,26.15c-.69,0-1.38,0-2.06,0-.2,0-.24.05-.24.24V30.1a.41.41,0,0,1,0,.26,5.24,5.24,0,0,0-3.79-.81,4.94,4.94,0,0,0-3.35,2A5.28,5.28,0,0,0,12.77,38a5.37,5.37,0,0,0,6.94,1c0,.15,0,.27,0,.38s0,.24.24.24c.68,0,1.37,0,2.06,0,.17,0,.22-.06.22-.23q0-6.51,0-13C22.23,26.2,22.19,26.15,22,26.15ZM16.82,37.52a2.88,2.88,0,1,1,0-5.75,2.88,2.88,0,1,1,0,5.75Z"/><path class="cls-1" d="M37.3,26.15c-.67,0-1.33,0-2,0-.22,0-.27.07-.27.29v3.92c-.2-.11-.35-.22-.52-.31a5,5,0,0,0-3-.51,5.09,5.09,0,0,0-3,1.4,5.11,5.11,0,0,0-.15,7.27,5.25,5.25,0,0,0,4.36,1.6,4.6,4.6,0,0,0,2.23-.75s.07,0,.12,0v.32c0,.17,0,.24.22.24.69,0,1.38,0,2.07,0,.18,0,.22-.06.22-.23v-13C37.54,26.18,37.47,26.15,37.3,26.15ZM32.14,37.52a2.93,2.93,0,0,1-2.87-2.88,3,3,0,0,1,2.88-2.89A2.94,2.94,0,0,1,35,34.64,2.88,2.88,0,0,1,32.14,37.52Z"/><path class="cls-1" d="M10.67,29.87v-.11c0-.12,0-.17-.16-.17-.73,0-1.46,0-2.2,0q-.17,0-.15.15v.62a5.32,5.32,0,0,0-6.9.91A5.1,5.1,0,0,0,1,37.61a4.89,4.89,0,0,0,2.71,2A5.56,5.56,0,0,0,8.16,39a1.25,1.25,0,0,1,0,.34c0,.21.07.26.27.26.65,0,1.31,0,2,0,.22,0,.28-.06.28-.29ZM5.25,37.52a2.88,2.88,0,1,1,0-5.75,2.88,2.88,0,1,1,0,5.75Z"/><path class="cls-1" d="M48.71,29.59H47.2c-.2,0-.44-.09-.58,0s0,.36,0,.56,0,.19-.18.09a5.19,5.19,0,1,0-3.11,9.55,5.61,5.61,0,0,0,3-.66c.32-.19.34-.18.32.2,0,.18,0,.24.24.24.63,0,1.26,0,1.9,0,.19,0,.25-.06.24-.25V29.83C49,29.64,48.9,29.58,48.71,29.59Zm-5,7.93a2.88,2.88,0,1,1,0-5.75,2.88,2.88,0,1,1,0,5.75Z"/><path class="cls-1" d="M19.71,26.06H8.3a.39.39,0,0,1-.4-.25C7.45,25,7,24.17,6.53,23.35c-.1-.18-.08-.25.1-.36C8.1,22.15,9.55,21.3,11,20.45l3.86-2.25c.17-.1.23-.05.31.1l3,5.16Z"/><path class="cls-1" d="M51.29,36.36h1.14c.1,0,.18,0,.18.15a1.51,1.51,0,0,0,1.24,1.39,2.57,2.57,0,0,0,1.83-.15,1.41,1.41,0,0,0,.53-.47.73.73,0,0,0-.35-1.1,4.52,4.52,0,0,0-1.3-.33A15.75,15.75,0,0,1,52,35.3a2.52,2.52,0,0,1-1.72-1.9,3,3,0,0,1,1.51-3.34A5.08,5.08,0,0,1,54,29.49a5.71,5.71,0,0,1,2.35.33,3.27,3.27,0,0,1,2.21,2.6c0,.3,0,.33-.28.33h-2c-.13,0-.19,0-.2-.18a1.14,1.14,0,0,0-1-1.12,4.15,4.15,0,0,0-1.61,0,1,1,0,0,0-.62.41.65.65,0,0,0,.25,1,4.2,4.2,0,0,0,1.35.39,21.16,21.16,0,0,1,2.22.42,3.17,3.17,0,0,1,2,1.55,3.12,3.12,0,0,1-.81,3.57,4.5,4.5,0,0,1-2.26.89,6.76,6.76,0,0,1-3.42-.3A3.42,3.42,0,0,1,50,36.61c0-.16,0-.26.21-.25C50.55,36.38,50.92,36.36,51.29,36.36Z"/><path class="cls-1" d="M23.34,34.47c0-1.58,0-3.16,0-4.75,0-.23.06-.28.28-.27.68,0,1.36,0,2,0,.16,0,.23,0,.23.21V39.3c0,.18-.06.22-.22.22-.7,0-1.4,0-2.09,0-.2,0-.24-.06-.24-.25Z"/></g></g></svg>