<svg xmlns="http://www.w3.org/2000/svg" viewBox="0 0 873.63 118.77"><defs><style>.cls-1{fill:#fff;}</style></defs><title>Ativo 1</title><g id="Camada_2" data-name="Camada 2"><g id="Camada_1-2" data-name="Camada 1"><path class="cls-1" d="M36.29,76.87c0,8.91,7.75,13.7,40.09,13.7,28.21,0,34.8-2.64,34.8-9.24,0-7.43-5.11-8.42-37.44-9.74-51.14-2-71.1-10.22-71.1-36.78C2.64,9.4,28,0,72.42,0s70.11,10.89,70.11,39.92H106.24c0-9.4-11.22-11.71-37.12-11.71-24.58,0-30.19,2-30.19,8.41,0,6.77,5.61,7.59,34.81,8.91,45.53,2.14,73.74,4.95,73.74,34.81,0,31.34-27.72,38.43-72.75,38.43C27.38,118.77,0,110.69,0,76.87Z"/><path class="cls-1" d="M224.51,0c46.19,0,69.78,16.83,72.09,51.63h-37c-2.15-14.68-13.69-21-35.14-21-27.71,0-36.29,10.73-36.29,28.54,0,18,8.74,28.87,36.29,28.87,21.45,0,33-6.43,35.14-21.28h37c-2.31,35-25.9,52-72.09,52-50.81,0-72.58-20.29-72.58-59.55C151.93,20.13,173.7,0,224.51,0Z"/><path class="cls-1" d="M396.07,94.52H336.52l-9.9,22.6H286.54L340.32,1.65h52l53.61,115.47H406ZM384.53,68.46,366.38,27.05,348.07,68.46Z"/><path class="cls-1" d="M487.46,32.33V53.12h75.88V83.8H487.46v33.32H451.17V1.65H573.24V32.33Z"/><path class="cls-1" d="M616.79,29.86V47h85.78V71.76H616.79V88.92h85.78v28.2H580.5V1.65H702.57V29.86Z"/><path class="cls-1" d="M829.09,86.44v30.68H710.32V1.65h36.29V86.44Z"/><path class="cls-1" d="M873.63,117.12H837.34V1.65h36.29Z"/></g></g></svg>