<svg xmlns="http://www.w3.org/2000/svg" viewBox="0 0 140.54 51.84"><defs><style>.cls-1{fill:#131313;}</style></defs><title>Ativo 33</title><g id="Camada_2" data-name="Camada 2"><g id="Camada_1-2" data-name="Camada 1"><path class="cls-1" d="M30.82,23.91H63.15V51.12H53l-.94-7.56c-4.54,5-11.66,8.28-22.32,8.28C11.16,51.84,0,43.06,0,25.85S11.16,0,31.9,0C52.06,0,62.36,7.49,63.15,20.59H47c-.72-3.16-4.32-7.2-15.12-7.2-14,0-16.06,6.92-16.06,13S18,40,31.9,40c9.86,0,14.62-3.32,15.12-6.92H30.82Z"/><path class="cls-1" d="M81.65,33.56c0,3.88,3.39,6,17.5,6,12.31,0,15.19-1.15,15.19-4,0-3.24-2.23-3.67-16.34-4.25-22.33-.86-31-4.46-31-16.06C67,4.1,78.05,0,97.42,0S128,4.75,128,17.43H112.18c0-4.11-4.9-5.12-16.2-5.12-10.73,0-13.18.87-13.18,3.68S85.25,19.3,98,19.87c19.87.94,32.18,2.16,32.18,15.2,0,13.68-12.09,16.77-31.75,16.77-20.67,0-32.62-3.52-32.62-18.28Z"/><path class="cls-1" d="M132.57,3.73h-2.45v4H129v-4h-2.45V2.79h6Z"/><path class="cls-1" d="M140.54,7.7h-1.12V4.08L137.2,7.7h-.84l-2.21-3.6V7.7H133V2.79h1.56l2.19,3.62L139,2.79h1.57Z"/></g></g></svg>