<svg xmlns="http://www.w3.org/2000/svg" viewBox="0 0 80.46 64.8"><defs><style>.cls-1{fill:#131313;}</style></defs><title>Ativo 22</title><g id="Camada_2" data-name="Camada 2"><g id="Camada_1-2" data-name="Camada 1"><path class="cls-1" d="M19.8,41.94c0,4.86,4.23,7.47,21.87,7.47,15.39,0,19-1.44,19-5,0-4-2.79-4.59-20.43-5.31C12.33,38,1.44,33.48,1.44,19,1.44,5.13,15.3,0,39.51,0S77.76,5.94,77.76,21.78H58c0-5.13-6.12-6.39-20.25-6.39-13.41,0-16.47,1.08-16.47,4.59,0,3.69,3.06,4.14,19,4.86,24.84,1.17,40.23,2.7,40.23,19,0,17.1-15.12,21-39.69,21C14.94,64.8,0,60.39,0,41.94Z"/></g></g></svg>