<svg xmlns="http://www.w3.org/2000/svg" viewBox="0 0 192.82 243"><defs><style>.cls-1,.cls-2{fill:none;stroke:#8a05be;stroke-miterlimit:10;}.cls-1{stroke-width:5px;}.cls-2{stroke-width:2px;}.cls-3{fill:#8a05be;}</style></defs><title>Ativo 22</title><g id="Camada_2" data-name="Camada 2"><g id="Camada_1-2" data-name="Camada 1"><path class="cls-1" d="M129.71,2.86,2.82,136.75a1.16,1.16,0,0,0,.84,2H46.81l-23,100.39a1.14,1.14,0,0,0,2,1l122-140.38a1.12,1.12,0,0,0-.85-1.86H109.45l22.18-94A1.13,1.13,0,0,0,129.71,2.86Z"/><path class="cls-1" d="M169.71,2.86,42.82,136.75a1.16,1.16,0,0,0,.84,2H86.81l-23,100.39a1.14,1.14,0,0,0,2,1l122-140.38a1.12,1.12,0,0,0-.85-1.86H149.45l22.18-94A1.13,1.13,0,0,0,169.71,2.86Z"/><circle class="cls-2" cx="183.21" cy="76.21" r="8.61"/><path class="cls-3" d="M181.67,81.76l-.16-1.62a5.7,5.7,0,0,0,3.52-.7c1.39-.79,1.7-1.63,1.32-2.29-1.1-1.94-5.71,2.36-7.6-1-.82-1.45-.37-3.33,2.09-4.73a6.49,6.49,0,0,1,3.43-.9l.21,1.59a5.73,5.73,0,0,0-2.87.7c-1.38.79-1.64,1.64-1.25,2.32,1.08,1.91,5.69-2.35,7.56.94.82,1.43.35,3.33-2.11,4.72A6.58,6.58,0,0,1,181.67,81.76Z"/></g></g></svg>