<svg xmlns="http://www.w3.org/2000/svg" viewBox="0 0 490.14 64.8"><defs><style>.cls-1{fill:#131313;}</style></defs><title>Ativo 30</title><g id="Camada_2" data-name="Camada 2"><g id="Camada_1-2" data-name="Camada 1"><path class="cls-1" d="M19.8,41.94c0,4.86,4.23,7.47,21.87,7.47,15.39,0,19-1.44,19-5,0-4-2.79-4.59-20.43-5.31C12.33,38,1.44,33.48,1.44,19,1.44,5.13,15.3,0,39.51,0S77.76,5.94,77.76,21.78H58c0-5.13-6.12-6.39-20.25-6.39-13.41,0-16.47,1.08-16.47,4.59,0,3.69,3.06,4.14,19,4.86,24.84,1.17,40.23,2.7,40.23,19,0,17.1-15.12,21-39.69,21C14.94,64.8,0,60.39,0,41.94Z"/><path class="cls-1" d="M124.74,0c25.2,0,38.07,9.18,39.33,28.17H143.91c-1.17-8-7.47-11.43-19.17-11.43-15.12,0-19.8,5.85-19.8,15.57s4.77,15.75,19.8,15.75c11.7,0,18-3.51,19.17-11.61h20.16c-1.26,19.08-14.13,28.35-39.33,28.35-27.72,0-39.6-11.07-39.6-32.49S97,0,124.74,0Z"/><path class="cls-1" d="M220.59,51.57H188.1L182.7,63.9H160.83L190.17.9h28.35l29.25,63H226Zm-6.3-14.22-9.9-22.59-10,22.59Z"/><path class="cls-1" d="M272.7,17.64V29h41.4V45.72H272.7V63.9H252.9V.9h66.6V17.64Z"/><path class="cls-1" d="M345.51,16.29v9.36h46.8v13.5h-46.8v9.36h46.8V63.9h-66.6V.9h66.6V16.29Z"/><path class="cls-1" d="M463.59,47.16V63.9h-64.8V.9h19.8V47.16Z"/><path class="cls-1" d="M490.14,63.9h-19.8V.9h19.8Z"/></g></g></svg>