<svg xmlns="http://www.w3.org/2000/svg" viewBox="0 0 123 26.27"><defs><style>.cls-1{fill:#1a1a1d;}</style></defs><g id="Layer_2" data-name="Layer 2"><g id="Layer_1-2" data-name="Layer 1"><path class="cls-1" d="M123,11.88V9.69h-2.67V6.35l-.08,0-2.52.75-.07,0V9.69h-4V8.27a2.23,2.23,0,0,1,.45-1.49,1.59,1.59,0,0,1,1.24-.49,3.08,3.08,0,0,1,1.19.27l.1.06V4.32l-.06,0a5.2,5.2,0,0,0-1.49-.2,4.83,4.83,0,0,0-2.12.49A3.61,3.61,0,0,0,111.53,6a4.22,4.22,0,0,0-.53,2.1V9.69h-1.85v2.16H111V21h2.67v-9.1h4v5.8c0,2.38,1.13,3.58,3.37,3.58a7.23,7.23,0,0,0,1.12-.12,3.72,3.72,0,0,0,.83-.26l0,0V18.68l-.1.08a1.75,1.75,0,0,1-.55.24,2,2,0,0,1-.53.09,1.42,1.42,0,0,1-1.16-.43,2.26,2.26,0,0,1-.37-1.45V11.88ZM107.36,11a5.37,5.37,0,0,0-4.11-1.55,5.87,5.87,0,0,0-4.39,1.63,6.15,6.15,0,0,0-1.57,4.44,5.74,5.74,0,0,0,1.56,4.21A5.55,5.55,0,0,0,103,21.29a5.66,5.66,0,0,0,4.3-1.66,6.07,6.07,0,0,0,1.57-4.37A5.88,5.88,0,0,0,107.36,11Zm-2,7.13a2.67,2.67,0,0,1-2.22.93,2.76,2.76,0,0,1-2.28-1,4,4,0,0,1-.82-2.71,4.27,4.27,0,0,1,.82-2.77,2.82,2.82,0,0,1,2.26-1,2.73,2.73,0,0,1,2.2.93,4.23,4.23,0,0,1,.82,2.76A4.46,4.46,0,0,1,105.34,18.13Zm-9.73-2.34a8.1,8.1,0,0,0-2.39-1.41,6.9,6.9,0,0,1-1.61-.83,1.18,1.18,0,0,1-.3-.86.92.92,0,0,1,.43-.81,1.9,1.9,0,0,1,1.16-.31,5.33,5.33,0,0,1,1.36.2,3.48,3.48,0,0,1,1.18.55l.11.09V9.92l-.07,0a7.13,7.13,0,0,0-1.2-.35A8.25,8.25,0,0,0,93,9.43a4.71,4.71,0,0,0-3.11,1,3,3,0,0,0-1.21,2.48,3.32,3.32,0,0,0,.26,1.39,3.13,3.13,0,0,0,.82,1.05,6.86,6.86,0,0,0,1.63.92c.61.27,1.08.47,1.37.64a2.76,2.76,0,0,1,.61.49,1.11,1.11,0,0,1,.16.62c0,.76-.57,1.12-1.73,1.12a4.39,4.39,0,0,1-1.47-.26,5.78,5.78,0,0,1-1.49-.75l-.1-.08v2.58l.06,0a7.34,7.34,0,0,0,1.43.45,9.25,9.25,0,0,0,1.53.18,5,5,0,0,0,3.28-1,3.15,3.15,0,0,0,1.24-2.57A2.85,2.85,0,0,0,95.61,15.79ZM85.83,11a5.36,5.36,0,0,0-4.12-1.55,5.81,5.81,0,0,0-4.37,1.63,6.07,6.07,0,0,0-1.57,4.44,5.81,5.81,0,0,0,1.54,4.21,6.34,6.34,0,0,0,8.44-.1,6,6,0,0,0,1.57-4.37A5.88,5.88,0,0,0,85.83,11Zm-2,7.13a2.7,2.7,0,0,1-2.23.93,2.78,2.78,0,0,1-2.28-1,4,4,0,0,1-.81-2.71,4.27,4.27,0,0,1,.81-2.77,2.82,2.82,0,0,1,2.27-1,2.72,2.72,0,0,1,2.2.93,4.28,4.28,0,0,1,.81,2.76A4.79,4.79,0,0,1,83.84,18.13ZM75.5,9.69a2.14,2.14,0,0,0-1-.18,2.86,2.86,0,0,0-1.8.63,3.86,3.86,0,0,0-1,1.53h0v-2H69V21h2.64V15.22a3.87,3.87,0,0,1,.66-2.39A2,2,0,0,1,74,11.92a6.56,6.56,0,0,1,.79.1,2.13,2.13,0,0,1,.63.26l.11.08V9.72Zm-11.08,2a4.33,4.33,0,0,1,2.53.86l.1.08V10l0,0a6,6,0,0,0-1.26-.41,7.55,7.55,0,0,0-1.49-.16,6.4,6.4,0,0,0-3.22.79,5.32,5.32,0,0,0-2.12,2.19,7,7,0,0,0-.73,3.25,6.07,6.07,0,0,0,.72,2.92,4.82,4.82,0,0,0,2,2,5.86,5.86,0,0,0,2.91.71,6.39,6.39,0,0,0,3.2-.75l0,0V18.09l-.1.08a4.75,4.75,0,0,1-1.28.67,4.06,4.06,0,0,1-1.27.25,3.12,3.12,0,0,1-2.48-1A3.76,3.76,0,0,1,61,15.44a3.86,3.86,0,0,1,.94-2.75A3.26,3.26,0,0,1,64.42,11.67ZM56.19,5.38a1.46,1.46,0,0,0-1.12-.45A1.55,1.55,0,0,0,54,5.38a1.42,1.42,0,0,0-.47,1.1A1.42,1.42,0,0,0,54,7.56,1.57,1.57,0,0,0,55.07,8a1.63,1.63,0,0,0,1.12-.42,1.42,1.42,0,0,0,.47-1.08A1.48,1.48,0,0,0,56.19,5.38ZM53.73,9.69V21h2.65V9.69ZM47.46,5.25l-4,9.88-.73,2.08h-.06a14.91,14.91,0,0,0-.71-2L38,5.29H34.14V21h2.54V11.32c0-.61,0-1.3,0-2.16,0-.42-.06-.75-.08-1h.06A9,9,0,0,0,37,9.51L41.73,21h1.8L48.21,9.41a11.35,11.35,0,0,0,.31-1.25h.06c-.06,1.17-.1,2.2-.12,2.84V21h2.7V5.25Z"/><path class="cls-1" d="M0,0H12.49V12.49H0Z"/><path class="cls-1" d="M13.79,0H26.27V12.49H13.79Z"/><path class="cls-1" d="M0,13.79H12.49V26.27H0Z"/><path class="cls-1" d="M13.79,13.79H26.27V26.27H13.79Z"/></g></g></svg>