<svg xmlns="http://www.w3.org/2000/svg" viewBox="0 0 1057.86 622.6"><defs><style>.cls-1{fill:#fff;}</style></defs><title>Ativo 19</title><g id="Camada_2" data-name="Camada 2"><g id="Camada_1-2" data-name="Camada 1"><path class="cls-1" d="M4.73,180.18V2H78V24.42H37.29V76.34H70.51V99H37.29v81.18Z"/><path class="cls-1" d="M143.55,182.6q-19.59,0-30.69-7.7a40.07,40.07,0,0,1-15.51-21q-4.41-13.3-4.4-30.69V59.62q0-18.25,4.4-31.68A38,38,0,0,1,112.86,7.26Q124,0,143.55,0,162,0,172.48,6.27A34.55,34.55,0,0,1,187.33,24.2q4.39,11.67,4.4,27.06v15H160.49V50.82a111.32,111.32,0,0,0-.77-13.64,17,17,0,0,0-4.18-9.79q-3.42-3.63-11.77-3.63t-12.21,3.85a18.54,18.54,0,0,0-5,10.34,87.45,87.45,0,0,0-1.1,14.63V130A68.31,68.31,0,0,0,127.05,146q1.53,6.27,5.61,9.46t11.11,3.19q8.13,0,11.55-3.85a18.93,18.93,0,0,0,4.29-10.23,106.38,106.38,0,0,0,.88-14.3V114.18h31.24v14.3a86.65,86.65,0,0,1-4.18,28.05,36.51,36.51,0,0,1-14.63,19.14Q162.46,182.6,143.55,182.6Z"/><path class="cls-1" d="M214.39,180.18V2h22.66l43.34,101.64V2h26.84v178.2H285.67L242.11,73.7V180.18Z"/><path class="cls-1" d="M334.29,180.18V2h32.56V80.3L402.05,2h31L399,81.62l37.62,98.56H404.25L374.33,99l-7.48,13.64v67.54Z"/><path class="cls-1" d="M493.35,182.6q-17.61,0-27.94-7.48t-14.85-21.23q-4.51-13.74-4.51-32.45V61.6q0-19.14,4.4-33T466,7.37Q477.06,0,496.65,0q18.25,0,29,6.16A35.29,35.29,0,0,1,541.2,23.87q4.72,11.55,4.73,28.05v9.24h-31V51A78.18,78.18,0,0,0,513.7,36.3q-1.22-6.15-4.84-9.35t-11.77-3.19q-8.58,0-12.43,4.18a20,20,0,0,0-4.84,11,104.6,104.6,0,0,0-1,15v74.58a73.39,73.39,0,0,0,1.54,16.06q1.53,6.83,5.72,10.45T498,158.62q7.92,0,12.1-4a21.48,21.48,0,0,0,5.83-11,74,74,0,0,0,1.65-16.72V110.22H498.41V89.76h48.4v90.42h-20.9l-2.42-17.6A34,34,0,0,1,512.82,177Q505.67,182.6,493.35,182.6Z"/><path d="M616.55,182.6q-16.06,0-26.84-6.27A39.43,39.43,0,0,1,573.43,158q-5.5-12.09-6.16-29.7l27.94-5.5A85.65,85.65,0,0,0,597.74,141q2.09,7.92,6.38,12.21t11.33,4.29q7.92,0,11.22-4.73t3.3-12q0-11.66-5.28-19.14a82.93,82.93,0,0,0-14.08-15L588.17,86.9A67.17,67.17,0,0,1,573.1,68.75q-5.61-10-5.61-24.75,0-21.12,12.32-32.56T613.47,0Q626,0,634.37,3.85a33.34,33.34,0,0,1,13.31,10.67A48.33,48.33,0,0,1,655.05,30a91.89,91.89,0,0,1,3.08,18.37l-27.72,4.84a95.77,95.77,0,0,0-1.87-15,20.89,20.89,0,0,0-5.06-10.34q-3.63-3.74-10.67-3.74-7.26,0-11.11,4.73a18,18,0,0,0-3.85,11.77q0,9,3.74,14.85a57.61,57.61,0,0,0,10.78,12l22.22,19.58a92.33,92.33,0,0,1,18.81,21.67q7.8,12.43,7.81,30a45.15,45.15,0,0,1-5.61,22.66A40.22,40.22,0,0,1,640,177Q630,182.6,616.55,182.6Z"/><path d="M698.17,180.18V26H669.79V2h88.88V26H730.72V180.18Z"/><path d="M774.94,180.18V2h42q21.78,0,34,5.94a34.63,34.63,0,0,1,17.38,18.26q5.17,12.33,5.17,31.24v65.12q0,19.36-5.17,32.23a36,36,0,0,1-17.16,19.14q-12,6.27-32.89,6.27Zm32.56-22.66h9.9q11.22,0,16.06-4T839.4,142a131.45,131.45,0,0,0,1.1-18.59V55.22A79,79,0,0,0,839,37.84q-1.53-6.6-6.38-9.68T817,25.08H807.5Z"/><path d="M898.36,180.18V2h32.12v178.2Z"/><path d="M1006.38,182.6q-18.93,0-30.14-7a38.86,38.86,0,0,1-16.06-20.24q-4.84-13.2-4.84-31.24V57.42q0-18,4.84-30.91A37.89,37.89,0,0,1,976.24,6.82Q987.46,0,1006.38,0q19.35,0,30.47,6.82a38.66,38.66,0,0,1,16.06,19.69q5,12.87,4.95,30.91V124.3q0,17.82-4.95,30.91a40.24,40.24,0,0,1-16.06,20.24Q1025.74,182.59,1006.38,182.6Zm0-24q8.13,0,12-3.52a17.72,17.72,0,0,0,5.17-9.68,64,64,0,0,0,1.32-13.42V49.94a62.15,62.15,0,0,0-1.32-13.42,17.06,17.06,0,0,0-5.17-9.35q-3.86-3.41-12-3.41-7.71,0-11.66,3.41a16.71,16.71,0,0,0-5.28,9.35,62.15,62.15,0,0,0-1.32,13.42V132a69.38,69.38,0,0,0,1.21,13.42,16.77,16.77,0,0,0,5.17,9.68Q998.46,158.63,1006.38,158.62Z"/><path d="M61.27,402.6q-16.05,0-26.84-6.27A39.53,39.53,0,0,1,18.15,378q-5.49-12.09-6.16-29.7l27.94-5.5A86.94,86.94,0,0,0,42.46,361q2.1,7.92,6.38,12.21t11.33,4.29q7.92,0,11.22-4.73t3.3-12q0-11.66-5.28-19.14a82.57,82.57,0,0,0-14.08-15L32.89,306.9a67.35,67.35,0,0,1-15.07-18.15q-5.61-10-5.61-24.75,0-21.12,12.32-32.56T58.19,220q12.54,0,20.9,3.85A33.27,33.27,0,0,1,92.4,234.52,48.12,48.12,0,0,1,99.77,250a91.18,91.18,0,0,1,3.08,18.37l-27.72,4.84a93.43,93.43,0,0,0-1.87-15,20.8,20.8,0,0,0-5.06-10.34q-3.63-3.74-10.67-3.74-7.26,0-11.11,4.73a18.09,18.09,0,0,0-3.85,11.77q0,9,3.74,14.85a58.18,58.18,0,0,0,10.78,12l22.22,19.58a91.87,91.87,0,0,1,18.81,21.67q7.81,12.43,7.81,30a45.15,45.15,0,0,1-5.61,22.66A40.15,40.15,0,0,1,84.7,397Q74.69,402.6,61.27,402.6Z"/><path d="M142.89,400.18V246H114.51V222h88.88v24H175.45V400.18Z"/><path d="M219.67,400.18V222h42q21.78,0,34,5.94a34.66,34.66,0,0,1,17.38,18.26q5.16,12.33,5.17,31.24v65.12q0,19.36-5.17,32.23a36,36,0,0,1-17.16,19.14q-12,6.27-32.89,6.27Zm32.56-22.66h9.9q11.22,0,16.06-4T284.13,362a133,133,0,0,0,1.1-18.59v-68.2a79.63,79.63,0,0,0-1.54-17.38q-1.54-6.6-6.38-9.68t-15.62-3.08h-9.46Z"/><path d="M343.09,400.18V222h32.12v178.2Z"/><path d="M451.11,402.6q-18.93,0-30.14-7a38.86,38.86,0,0,1-16.06-20.24q-4.85-13.2-4.84-31.24V277.42q0-18,4.84-30.91A37.89,37.89,0,0,1,421,226.82Q432.19,220,451.11,220q19.35,0,30.47,6.82a38.66,38.66,0,0,1,16.06,19.69q5,12.87,4.95,30.91V344.3q0,17.82-4.95,30.91a40.24,40.24,0,0,1-16.06,20.24Q470.47,402.59,451.11,402.6Zm0-24q8.13,0,12-3.52a17.72,17.72,0,0,0,5.17-9.68A64,64,0,0,0,469.59,352V269.94a62.15,62.15,0,0,0-1.32-13.42,17.06,17.06,0,0,0-5.17-9.35q-3.86-3.4-12-3.41-7.71,0-11.66,3.41a16.71,16.71,0,0,0-5.28,9.35,62.15,62.15,0,0,0-1.32,13.42V352a69.38,69.38,0,0,0,1.21,13.42,16.77,16.77,0,0,0,5.17,9.68Q443.19,378.63,451.11,378.62Z"/><path class="cls-1" d="M574.52,402.6q-19.57,0-30.69-7.7a40.18,40.18,0,0,1-15.51-21q-4.4-13.31-4.4-30.69V279.62q0-18.25,4.4-31.68a38.07,38.07,0,0,1,15.51-20.68Q554.94,220,574.52,220q18.48,0,28.93,6.27A34.46,34.46,0,0,1,618.3,244.2q4.41,11.67,4.4,27.06v15H591.46v-15.4a109.37,109.37,0,0,0-.77-13.64,16.88,16.88,0,0,0-4.18-9.79q-3.4-3.63-11.77-3.63t-12.21,3.85A18.68,18.68,0,0,0,557.58,258a88.52,88.52,0,0,0-1.1,14.63V350A68.86,68.86,0,0,0,558,366q1.54,6.27,5.61,9.46t11.11,3.19q8.14,0,11.55-3.85a18.78,18.78,0,0,0,4.29-10.23,104.76,104.76,0,0,0,.88-14.3V334.18H622.7v14.3a86.38,86.38,0,0,1-4.18,28,36.41,36.41,0,0,1-14.63,19.14Q593.45,402.6,574.52,402.6Z"/><path class="cls-1" d="M645.36,400.18V222H688q18,0,30.47,4.29a35,35,0,0,1,18.92,14.63q6.5,10.35,6.49,28.16a86.36,86.36,0,0,1-2,19.36,36.87,36.87,0,0,1-6.71,14.63,30.2,30.2,0,0,1-13.09,9.35L747,400.18H714.44l-21.56-81.62h-15v81.62ZM677.92,298.1H688q9.47,0,15.07-2.75a16,16,0,0,0,8-8.8q2.42-6,2.42-15.51,0-13.41-4.95-20.13T689.8,244.2H677.92Z"/><path class="cls-1" d="M785.72,400.18V246H757.34V222h88.88v24H818.28V400.18Z"/><path class="cls-1" d="M889.78,400.18,853.92,222h28.82L906.28,348l22-126.06h29.48L921.9,400.18Z"/><path class="cls-1" d="M976,400.18V222h74.8v22.88h-42.24v51.26h33.22v22.66h-33.22v59h42.68v22.44Z"/><path class="cls-1" d="M49.28,622.6q-16.06,0-26.84-6.27A39.48,39.48,0,0,1,6.16,598Q.66,585.87,0,568.26l27.94-5.5A86.29,86.29,0,0,0,30.47,581q2.09,7.92,6.38,12.21t11.33,4.29q7.92,0,11.22-4.73t3.3-12q0-11.65-5.28-19.14a82.57,82.57,0,0,0-14.08-15L20.9,526.9A67.17,67.17,0,0,1,5.83,508.75Q.22,498.75.22,484q0-21.12,12.32-32.56T46.2,440q12.54,0,20.9,3.85a33.34,33.34,0,0,1,13.31,10.67A48.12,48.12,0,0,1,87.78,470a91.89,91.89,0,0,1,3.08,18.37l-27.72,4.84a95.77,95.77,0,0,0-1.87-15,20.89,20.89,0,0,0-5.06-10.34q-3.63-3.74-10.67-3.74-7.26,0-11.11,4.73a18,18,0,0,0-3.85,11.77q0,9,3.74,14.85a57.89,57.89,0,0,0,10.78,12l22.22,19.58a92.33,92.33,0,0,1,18.81,21.67q7.8,12.44,7.81,30a45.15,45.15,0,0,1-5.61,22.66A40.22,40.22,0,0,1,72.71,617Q62.71,622.6,49.28,622.6Z"/><path class="cls-1" d="M130.9,620.18V466H102.52V442H191.4v24H163.46V620.18Z"/><path class="cls-1" d="M207.68,620.18V442h42q21.78,0,34,5.94a34.66,34.66,0,0,1,17.38,18.26q5.16,12.33,5.17,31.24v65.12q0,19.37-5.17,32.23a36,36,0,0,1-17.16,19.14q-12,6.27-32.89,6.27Zm32.56-22.66h9.9q11.22,0,16.06-4T272.14,582a133,133,0,0,0,1.1-18.59v-68.2a79.63,79.63,0,0,0-1.54-17.38q-1.54-6.6-6.38-9.68t-15.62-3.08h-9.46Z"/><path class="cls-1" d="M331.09,620.18V442h32.12v178.2Z"/><path class="cls-1" d="M439.11,622.6q-18.92,0-30.14-7a38.91,38.91,0,0,1-16.06-20.24q-4.83-13.2-4.84-31.24V497.42q0-18,4.84-30.91A37.94,37.94,0,0,1,409,446.82Q420.19,440,439.11,440q19.36,0,30.47,6.82a38.61,38.61,0,0,1,16.06,19.69q5,12.87,4.95,30.91V564.3q0,17.82-4.95,30.91a40.18,40.18,0,0,1-16.06,20.24Q458.47,622.59,439.11,622.6Zm0-24q8.14,0,12-3.52a17.66,17.66,0,0,0,5.17-9.68A64,64,0,0,0,457.59,572V489.94a62.15,62.15,0,0,0-1.32-13.42,17,17,0,0,0-5.17-9.35q-3.84-3.41-12-3.41-7.69,0-11.66,3.41a16.71,16.71,0,0,0-5.28,9.35,62.15,62.15,0,0,0-1.32,13.42V572a69.38,69.38,0,0,0,1.21,13.42,16.82,16.82,0,0,0,5.17,9.68Q431.19,598.63,439.11,598.62Z"/><path d="M514.57,620.18V442h73.26v22.44h-40.7v51.92h33.22V539H547.13v81.18Z"/><path d="M653.39,622.6q-19.59,0-30.69-7.7a40.07,40.07,0,0,1-15.51-21q-4.41-13.3-4.4-30.69V499.62q0-18.25,4.4-31.68a38,38,0,0,1,15.51-20.68Q633.8,440,653.39,440q18.48,0,28.93,6.27a34.55,34.55,0,0,1,14.85,17.93q4.4,11.67,4.4,27.06v15H670.33v-15.4a111.32,111.32,0,0,0-.77-13.64,17,17,0,0,0-4.18-9.79q-3.42-3.63-11.77-3.63t-12.21,3.85A18.54,18.54,0,0,0,636.45,478a87.45,87.45,0,0,0-1.1,14.63V570a68.31,68.31,0,0,0,1.54,16q1.53,6.27,5.61,9.46t11.11,3.19q8.13,0,11.55-3.85a18.93,18.93,0,0,0,4.29-10.23,106.38,106.38,0,0,0,.88-14.3V554.18h31.24v14.3a86.65,86.65,0,0,1-4.18,28,36.51,36.51,0,0,1-14.63,19.14Q672.31,622.6,653.39,622.6Z"/><path d="M724.23,620.18V442h32.56V520.3L792,442h31l-34.1,79.64,37.62,98.56H794.19L764.27,539l-7.48,13.64v67.54Z"/><path d="M839.29,620.18V442H862l43.34,101.64V442h26.84v178.2H910.57L867,513.7V620.18Z"/><path d="M1003.85,622.6q-17.61,0-27.94-7.48t-14.85-21.23q-4.51-13.74-4.51-32.45V501.6q0-19.14,4.4-33t15.51-21.23q11.1-7.37,30.69-7.37,18.26,0,29,6.16a35.29,35.29,0,0,1,15.51,17.71q4.72,11.55,4.73,28.05v9.24h-31V491a78.18,78.18,0,0,0-1.21-14.74q-1.22-6.15-4.84-9.35t-11.77-3.19q-8.58,0-12.43,4.18a20,20,0,0,0-4.84,11,104.6,104.6,0,0,0-1,15v74.58a73.39,73.39,0,0,0,1.54,16.06q1.53,6.83,5.72,10.45t11.88,3.63q7.92,0,12.1-4a21.48,21.48,0,0,0,5.83-11,74,74,0,0,0,1.65-16.72V550.22h-19.14V529.76h48.4v90.42h-20.9l-2.42-17.6A34,34,0,0,1,1023.32,617Q1016.17,622.6,1003.85,622.6Z"/></g></g></svg>