<svg xmlns="http://www.w3.org/2000/svg" viewBox="0 0 131.36 31.72"><defs><style>.cls-1{fill:#1a1a1d;}</style></defs><g id="Layer_2" data-name="Layer 2"><g id="Layer_1-2" data-name="Layer 1"><path class="cls-1" d="M0,6.66S3.27,20.05,3.79,22.22c.61,2.54,1.71,3.48,4.87,2.85l2-8.31c.52-2.06.86-3.53,1.2-5.63H12a52.75,52.75,0,0,0,1,5.64s.83,3.77,1.25,5.75,1.62,3.23,4.72,2.55L23.78,6.66H19.85l-1.66,8c-.44,2.31-.85,4.12-1.16,6.24H17c-.28-2.09-.64-3.83-1.1-6.09L14.15,6.66h-4.1L8.21,14.57c-.53,2.4-1,4.34-1.33,6.39H6.82c-.32-1.93-.74-4.37-1.2-6.7L4.14,6.66Zm37.43,0V25.07h3.74V6.66Zm52.65,0V20.24c0,1.87.35,3.18,1.1,4a4.17,4.17,0,0,0,3,1.16,8.89,8.89,0,0,0,2.7-.4l-.05-2.92a5.92,5.92,0,0,1-1.42.16c-1.27,0-1.7-.81-1.7-2.49v-5.2H97V11H93.76V6.66Zm-61,4.26a10.74,10.74,0,0,0-5.18,1.24l.74,2.52a7.56,7.56,0,0,1,3.77-1.06c2.3,0,2.67,1.3,2.67,2.13V16c-5,0-8.16,1.72-8.16,5.25a4.16,4.16,0,0,0,4.4,4.18,5,5,0,0,0,4-1.79h.08S32,26,35.16,25.07a19.83,19.83,0,0,1-.22-3.34V16.82c0-3.14-1.34-5.9-5.86-5.9Zm22.36,0a4.35,4.35,0,0,0-4,2.2h-.06V11.24H43.79V25.07h3.75V17a3.36,3.36,0,0,1,.18-1.14A2.55,2.55,0,0,1,50,14.05c1.52,0,2.23,1.28,2.23,3.13v7.89H56V16.86a3.7,3.7,0,0,1,.16-1.12,2.38,2.38,0,0,1,2.26-1.69c1.53,0,2.27,1.26,2.27,3.44v7.58h3.76V16.92c0-4.29-2.18-6-4.65-6a4.94,4.94,0,0,0-2.72.76A5.85,5.85,0,0,0,55.3,13.4h0a4,4,0,0,0-3.81-2.48Zm20.63,0a10.73,10.73,0,0,0-5.17,1.24l.74,2.52a7.56,7.56,0,0,1,3.77-1.06c2.29,0,2.67,1.3,2.67,2.13V16c-5,0-8.16,1.72-8.16,5.25a4.16,4.16,0,0,0,4.4,4.18,5,5,0,0,0,4-1.79h.08S75,26,78.15,25.07a21,21,0,0,1-.21-3.34V16.82c0-3.14-1.34-5.9-5.87-5.9Zm15.61,0a4.06,4.06,0,0,0-3.76,2.92h-.11v-2.6H80.43V25.07h3.85V18a5.3,5.3,0,0,1,.09-1,2.91,2.91,0,0,1,3-2.43,7.14,7.14,0,0,1,1.11.1V11a3.63,3.63,0,0,0-.85-.09ZM31.2,18.4v1.73a2.59,2.59,0,0,1-.09.74,2.62,2.62,0,0,1-2.52,1.77,1.7,1.7,0,0,1-1.86-1.83c0-1.9,2.09-2.42,4.47-2.41Zm43,0v1.73a2.59,2.59,0,0,1-.09.74,2.62,2.62,0,0,1-2.52,1.77,1.7,1.7,0,0,1-1.86-1.83c0-1.9,2.09-2.42,4.47-2.41Z"/><path class="cls-1" d="M117.23,0c-1.21,0-2.16.67-2.16,1.49l.73,8.3a1.35,1.35,0,0,0,1.43.89,1.37,1.37,0,0,0,1.44-.89l.73-8.3c0-.82-1-1.49-2.17-1.49ZM105.29,6.66a2.31,2.31,0,0,0-1.79,1.27c-.61,1.05-.5,2.21.21,2.62l7.55,3.52a1.35,1.35,0,0,0,1.48-.8h0a1.34,1.34,0,0,0,0-1.68L105.87,6.8a1,1,0,0,0-.58-.14Zm23.89,0a1.1,1.1,0,0,0-.59.14l-6.82,4.79a1.35,1.35,0,0,0,0,1.68h0a1.35,1.35,0,0,0,1.48.8l7.56-3.52c.71-.41.81-1.57.21-2.62a2.33,2.33,0,0,0-1.79-1.27Zm-17.64,11a.66.66,0,0,0-.28,0l-7.55,3.52c-.71.41-.82,1.58-.21,2.62s1.67,1.54,2.37,1.13l6.83-4.78a1.35,1.35,0,0,0,0-1.69h0a1.52,1.52,0,0,0-1.21-.84Zm11.38,0a1.52,1.52,0,0,0-1.2.84h0a1.37,1.37,0,0,0,0,1.69l6.82,4.78c.71.41,1.77-.08,2.38-1.13s.5-2.21-.21-2.62l-7.55-3.52a.92.92,0,0,0-.29,0Zm-5.69,3.44a1.35,1.35,0,0,0-1.43.88l-.73,8.3c0,.82,1,1.49,2.16,1.49s2.17-.67,2.17-1.49l-.73-8.3a1.35,1.35,0,0,0-1.44-.88Z"/></g></g></svg>